<?xml version="1.0" standalone="no"?> <!DOCTYPE svg PUBLIC "-//W3C//DTD SVG 1.0//EN" "http://www.w3.org/TR/2001/REC-SVG-20010904/DTD/svg10.dtd" > <svg xmlns="http://www.w3.org/2000/svg" width="100%" height="100%">
<defs >
<font id="caecilialtstdbold" horiz-adv-x="1150" ><font-face
    font-family="Caecilia LT Std Light"
    units-per-em="2048"
    panose-1="2 6 8 3 5 5 5 2 2 4"
    ascent="1575"
    descent="-473"
    alphabetic="0" />
<missing-glyph horiz-adv-x="1024" d="M0 0V1434H1024V0H0ZM512 809L860 1331H164L512 809ZM573 717L922 195V1239L573 717ZM164 102H860L512 625L164 102ZM102 1239V195L451 717L102 1239Z" />
<glyph unicode=" " glyph-name="space" horiz-adv-x="606" />
<glyph unicode="!" glyph-name="exclam" horiz-adv-x="606" d="M412 473H195L170 1575H436L412 473ZM145 61T145 127T191 239T303 285T415 239T461 127T415 15T303 -31T191 15Z" />
<glyph unicode="&quot;" glyph-name="quotedbl" horiz-adv-x="985" d="M612 977L592 1233Q588 1285 582 1344T574 1433T571 1485Q571 1532 605 1565T686 1599Q734 1599 767 1566T801 1485Q801 1461 780 1233L760 977Q757 938 736 921T686 903T637 920T612 977ZM225
977L205 1233Q201 1285 195 1344T187 1433T184 1485Q184 1532 218 1565T299 1599T380 1566T414 1485Q414 1461 393 1233L373 977Q370 938 349 921T299 903T250 920T225 977Z" />
<glyph unicode="#" glyph-name="numbersign" horiz-adv-x="1212" d="M721 573L760 860H492L453 573H721ZM639 0L700 430H432L371 0H227L289 430H102V573H309L348 860H162V1004H369L430 1434H573L512 1004H780L842 1434H985L924 1004H1110V860H903L864 573H1051V430H844L782
0H639Z" />
<glyph unicode="$" glyph-name="dollar" horiz-adv-x="1212" d="M457 877L524 858L528 1284Q417 1271 356 1211T289 1065Q289 921 457 877ZM739 575L682 592L674 150Q797 163 860 222T924 379Q924 465 876 508T739 575ZM63 383H268V180Q384 150 520 150L524 633L377
680Q228 720 144 807T59 1030Q59 1134 99 1217T207 1351T357 1431T528 1464L532 1729H688L684 1464Q856 1460 1063 1397V1079H870V1251Q773 1286 684 1284L680 815L803 780Q891 756 950 729T1058 659T1130 550T1153 395Q1153 209 1024 99T674 -31L670 -281H514L518
-31Q385 -31 257 -14T63 31V383Z" />
<glyph unicode="%" glyph-name="percent" horiz-adv-x="1705" d="M1282 494Q1202 494 1158 443T1116 303Q1118 214 1159 164T1282 113Q1365 113 1406 164T1448 303Q1448 494 1282 494ZM1292 637Q1437 637 1526 552T1616 305Q1616 154 1525 62T1282 -31Q1131 -31
1040 59T948 301Q948 443 1042 540T1292 637ZM424 1321Q344 1321 300 1270T258 1130T301 991T424 940Q507 940 548 991T590 1130Q590 1321 424 1321ZM434 1464Q578 1464 668 1379T758 1133Q758 982 667 890T424 797Q274 797 182 886T90 1128Q90 1271 184 1367T434
1464ZM303 -37L1247 1550L1380 1470L436 -117L303 -37Z" />
<glyph unicode="&amp;" glyph-name="ampersand" horiz-adv-x="1554" d="M1466 877V721H1335Q1335 609 1292 485T1188 291Q1294 168 1399 168Q1439 168 1466 174V6Q1427 0 1372 0Q1291 0 1232 19T1118 94L1067 147Q984 62 881 19T610 -25Q496 -25 402 11T247 105T154
236T121 383Q121 599 344 754L418 805L358 870Q295 940 266 1000T236 1137Q236 1182 249 1225T294 1311T370 1386T483 1438T635 1458Q720 1458 786 1433T892 1366T952 1274T973 1167T957 1064T909 978T847 911T770 850L694 793L1065 414Q1104 465 1130 559T1155
721H1016V877H1466ZM575 909L618 938Q693 986 736 1034T780 1149Q780 1217 737 1260T614 1303Q533 1303 481 1257T428 1149Q428 1095 457 1048T541 946L575 909ZM940 270L537 684L487 651Q416 605 377 550T338 418Q338 305 423 231T649 156Q722 156 777 172T864
209T940 270Z" />
<glyph unicode="&apos;" glyph-name="quotesingle" horiz-adv-x="606" d="M229 977L209 1233Q205 1285 199 1344T191 1433T188 1485Q188 1532 222 1565T303 1599Q351 1599 384 1566T418 1485Q418 1461 397 1233L377 977Q374 938 353 921T303 903T254 920T229 977Z" />
<glyph unicode="(" glyph-name="parenleft" horiz-adv-x="606" d="M629 -467L469 -559L440 -522Q290 -323 194 -35T98 530Q98 822 197 1094T451 1577L483 1620L639 1528L610 1485Q488 1303 414 1047T340 530Q340 -13 600 -422L629 -467Z" />
<glyph unicode=")" glyph-name="parenright" horiz-adv-x="606" d="M-23 1528L137 1620L166 1583Q316 1384 412 1096T508 530Q508 239 409 -33T156 -516L123 -559L-33 -467L-4 -424Q118 -242 192 14T266 530Q266 1074 6 1483L-23 1528Z" />
<glyph unicode="*" glyph-name="asterisk" horiz-adv-x="720" d="M287 938L319 1188L121 1038L45 1165L281 1260L45 1346L121 1483L319 1331L287 1575H446L408 1331L600 1483L676 1346L449 1260L676 1165L600 1038L408 1188L446 938H287Z" />
<glyph unicode="+" glyph-name="plus" horiz-adv-x="1228" d="M530 0V434H96V602H530V1036H698V602H1133V434H698V0H530Z" />
<glyph unicode="," glyph-name="comma" horiz-adv-x="606" d="M197 -412L92 -309L127 -274Q178 -223 204 -180T231 -88Q231 -50 215 -15T178 42T142 95T125 156Q125 202 164 243T272 285Q359 285 410 213T461 49Q461 -47 415 -154T274 -344L197 -412Z" />
<glyph unicode="-" glyph-name="hyphen" horiz-adv-x="833" d="M135 479V684H698V479H135Z" />
<glyph unicode="." glyph-name="period" horiz-adv-x="606" d="M145 61T145 127T191 239T303 285T415 239T461 127T415 15T303 -31T191 15Z" />
<glyph unicode="/" glyph-name="slash" horiz-adv-x="757" d="M-4 -109L610 1599L762 1542L147 -166L-4 -109Z" />
<glyph unicode="0" glyph-name="zero" horiz-adv-x="1212" d="M328 692Q328 574 342 480T386 309T471 192T600 150Q677 150 734 195T823 320T870 500T885 719Q885 1004 820 1144T614 1284Q540 1284 484 1239T395 1113T345 926T328 692ZM86 688Q86 806 103 914T159
1123T258 1299T410 1419T618 1464Q704 1464 776 1440T899 1376T990 1278T1056 1158T1097 1023T1119 884T1126 748Q1126 618 1109 506T1052 294T951 123T798 11T588 -31Q86 -31 86 688Z" />
<glyph unicode="1" glyph-name="one" horiz-adv-x="1212" d="M274 0V168H553L561 1219Q510 1171 477 1151L217 979L123 1135L610 1434H791L782 168H1081V0H274Z" />
<glyph unicode="2" glyph-name="two" horiz-adv-x="1212" d="M96 0V168L152 211Q386 398 508 518Q829 833 829 1051Q829 1154 772 1213T592 1272Q534 1272 487 1252T412 1203T365 1136T339 1069T332 1014H102Q102 1063 115 1118T165 1236T255 1348T398 1431T600
1464Q800 1464 929 1357T1059 1055Q1059 985 1036 910T977 771T884 634T776 507T653 386T535 281T422 188V184Q510 193 578 193H1110V0H96Z" />
<glyph unicode="3" glyph-name="three" horiz-adv-x="1212" d="M412 647V815H438Q502 815 562 829T679 874T769 960T803 1092Q803 1180 745 1232T588 1284Q531 1284 486 1268T414 1226T370 1170T346 1111T340 1057H111Q111 1098 124 1146T172 1253T261 1356T403
1433T604 1464Q819 1464 931 1365T1044 1108Q1044 964 959 877T743 760V756Q901 744 1001 653T1102 408Q1102 313 1068 235T966 96T785 3T524 -31Q298 -31 119 49V268Q317 162 512 162Q584 162 643 174T753 214T832 292T860 410Q860 482 826 532T732 605T617 638T494
647H412Z" />
<glyph unicode="4" glyph-name="four" horiz-adv-x="1212" d="M51 401V582L649 1434H928L920 582H1190V401H920L915 168H1085V0H549V168H700L705 401H51ZM705 582L709 1210L705 1214L274 578Q344 582 379 582H705Z" />
<glyph unicode="5" glyph-name="five" horiz-adv-x="1212" d="M178 1434H1008V1253H408L399 911H434Q500 911 565 904T705 878T843 826T958 744T1041 621T1071 453Q1071 240 917 105T512 -31Q304 -31 141 31V223Q143 222 173 212T227 195T290 180T377 167T477
162Q649 162 739 234T829 440Q829 503 806 551T738 630T639 682T510 713T365 727T207 731H170L178 1434Z" />
<glyph unicode="6" glyph-name="six" horiz-adv-x="1212" d="M1077 1425L1061 1245Q941 1284 829 1284Q595 1284 481 1151T332 752L336 748Q472 903 670 903T989 786T1110 471Q1110 238 976 104T618 -31Q504 -31 414 9T266 113T171 266T118 446T102 635Q102 767
124 884T201 1109T336 1294T544 1418T829 1464Q943 1464 1047 1436L1077 1425ZM354 610L332 584Q332 392 407 277T625 162Q745 162 813 247T881 455Q881 506 866 552T820 638T736 700T614 723Q579 723 547 717T494 704T448 682T413 660T380 633T354 610Z" />
<glyph unicode="7" glyph-name="seven" horiz-adv-x="1212" d="M129 1241V1434H1083V1286L635 389Q521 167 418 0H164Q257 126 379 362L670 928Q781 1146 848 1241H129Z" />
<glyph unicode="8" glyph-name="eight" horiz-adv-x="1212" d="M535 879L618 840L694 877Q860 958 860 1098Q860 1192 792 1238T614 1284Q497 1284 432 1230T367 1090Q367 1012 411 966T535 879ZM731 575L598 643L508 596Q326 501 326 362Q326 268 397 209T612
150Q756 150 827 211T899 373Q899 448 856 491T731 575ZM340 692L428 731V735Q372 753 324 779T232 847T163 950T137 1087Q137 1251 262 1357T621 1464Q842 1464 966 1374T1090 1114Q1090 984 1008 893T793 750V745Q840 731 883 711T972 659T1051 587T1106 491T1128
371Q1128 -31 588 -31Q510 -31 440 -20T304 18T190 86T113 193T84 342Q84 413 108 473T173 576T254 645T340 692Z" />
<glyph unicode="9" glyph-name="nine" horiz-adv-x="1212" d="M135 8L152 188Q266 150 383 150Q503 150 591 185T738 290T830 456T881 682L877 686Q738 530 543 530Q345 530 224 647T102 963Q102 1196 236 1330T594 1464Q676 1464 746 1444T868 1387T961 1300T1030
1192T1076 1067T1102 934T1110 799Q1110 666 1088 549T1011 324T876 139T668 15T383 -31Q272 -31 166 -2L135 8ZM858 823L881 850Q881 1042 806 1157T588 1272Q468 1272 400 1187T332 979Q332 928 347 882T393 796T477 734T598 711Q628 711 655 714T705 726T745
741T781 761T809 781T836 804T858 823Z" />
<glyph unicode=":" glyph-name="colon" horiz-adv-x="606" d="M145 866T145 932T191 1044T303 1090T415 1044T461 932T415 820T303 774T191 820ZM145 61T145 127T191 239T303 285T415 239T461 127T415 15T303 -31T191 15Z" />
<glyph unicode=";" glyph-name="semicolon" horiz-adv-x="606" d="M197 -412L92 -309L127 -274Q178 -223 204 -180T231 -88Q231 -50 215 -15T178 42T142 95T125 156Q125 202 164 243T272 285Q359 285 410 213T461 49Q461 -47 415 -154T274 -344L197 -412ZM141
866T141 932T187 1044T299 1090T411 1044T457 932T411 820T299 774T187 820Z" />
<glyph unicode="&lt;" glyph-name="less" horiz-adv-x="1228" d="M96 440V596L1133 1059V891L301 518L1133 145V-23L96 440Z" />
<glyph unicode="=" glyph-name="equal" horiz-adv-x="1228" d="M96 631V799H1133V631H96ZM96 238V406H1133V238H96Z" />
<glyph unicode="&gt;" glyph-name="greater" horiz-adv-x="1228" d="M1133 596V440L96 -23V145L928 518L96 891V1059L1133 596Z" />
<glyph unicode="?" glyph-name="question" horiz-adv-x="985" d="M135 1376L123 1556Q238 1599 410 1599Q638 1599 762 1496T887 1225Q887 1005 670 864L481 743Q430 709 412 685T393 618Q393 572 434 524L446 512L244 436L227 457Q164 547 164 631Q164 672 180
709T218 774T279 831T346 879T420 924Q537 990 585 1054T633 1208Q633 1303 554 1361T360 1419Q289 1419 228 1405T135 1376ZM166 61T166 127T212 239T324 285T435 239T481 127T436 15T324 -31T212 15Z" />
<glyph unicode="@" glyph-name="at" horiz-adv-x="1638" d="M999 797Q999 983 838 983Q759 983 692 927T590 787T555 618Q555 529 596 481T709 432Q790 432 859 493T963 638T999 797ZM1243 1100L1104 600Q1071 485 1071 463T1086 431T1139 420Q1222 420 1301 542T1380
823Q1380 926 1337 1014T1222 1162T1053 1256T852 1290Q682 1290 545 1210T333 997T258 711Q258 584 305 476T431 296T616 184T836 143Q1158 143 1329 311H1497Q1416 159 1244 67T836 -25Q678 -25 540 26T299 171T137 406T78 719Q78 874 134 1010T291 1245T537
1401T852 1458Q1051 1458 1212 1382T1467 1166T1561 848Q1561 734 1527 636T1438 474T1315 363T1181 297T1055 276Q983 276 948 308T911 395H907Q862 344 799 310T662 276Q544 276 466 365T387 600Q387 740 449 865T613 1064T829 1139Q982 1139 1061 983L1098 1100H1243Z"
/>
<glyph unicode="A" glyph-name="A" horiz-adv-x="1554" d="M954 705L813 1110Q786 1188 776 1241H772Q758 1175 733 1110L575 705H954ZM25 0V168H147L668 1434H922L1403 168H1530V0H1006V168H1137L1014 524H510L377 168H524V0H25Z" />
<glyph unicode="B" glyph-name="B" horiz-adv-x="1290" d="M455 168H643Q777 168 860 228T944 410Q944 523 860 583T655 643H459L455 168ZM80 0V168H223L231 1266H80V1434H651Q769 1434 844 1417T983 1352Q1038 1313 1075 1240T1112 1081Q1112 951 1036 858T827
754V750Q925 751 1008 711T1145 589T1198 401Q1198 214 1066 107T680 0H80ZM459 823H614Q733 823 801 883T870 1053Q870 1183 774 1239Q726 1266 612 1266H463L459 823Z" />
<glyph unicode="C" glyph-name="C" horiz-adv-x="1402" d="M1307 1014H1102V1243Q970 1278 858 1278Q604 1278 471 1130T338 711Q338 466 473 311T827 156Q977 156 1083 176L1092 434H1296L1288 43Q1210 17 1085 -4T842 -25Q654 -25 508 31T270 186T131 416T84
702Q84 869 138 1009T292 1248T538 1402T860 1458Q986 1458 1106 1435T1307 1380V1014Z" />
<glyph unicode="D" glyph-name="D" horiz-adv-x="1593" d="M80 0V168H225L233 1266H80V1434H760Q1102 1434 1293 1250T1485 750Q1485 591 1436 454T1295 216T1065 58T758 0H80ZM455 168H684Q945 168 1088 318T1231 739Q1231 985 1093 1125T694 1266H463L455 168Z" />
<glyph unicode="E" glyph-name="E" horiz-adv-x="1214" d="M94 0V168H238L246 1266H80V1434H1087L1096 1057H905L893 1266H477L473 823H883V643H473L469 168H905L922 401H1114L1098 0H94Z" />
<glyph unicode="F" glyph-name="F" horiz-adv-x="1175" d="M94 0V168H238L246 1266H80V1434H1087L1096 1057H905L893 1266H477L473 823H920V643H473L469 168H645V0H94Z" />
<glyph unicode="G" glyph-name="G" horiz-adv-x="1478" d="M1307 1014H1102V1243Q970 1278 858 1278Q604 1278 471 1130T338 711Q338 466 473 311T827 156Q959 156 1071 184L1075 500H911V668H1440V500H1292L1288 43Q1213 16 1087 -4T850 -25Q659 -25 511 31T271
186T131 416T84 702Q84 869 138 1009T292 1248T538 1402T860 1458Q979 1458 1103 1435T1307 1380V1014Z" />
<glyph unicode="H" glyph-name="H" horiz-adv-x="1593" d="M981 0V168H1124L1128 629H463L459 168H612V0H84V168H227L236 1266H84V1434H612V1266H467L463 809H1128L1133 1266H981V1434H1509V1266H1364L1356 168H1509V0H981Z" />
<glyph unicode="I" glyph-name="I" horiz-adv-x="720" d="M96 0V168H242L250 1266H96V1434H625V1266H479L471 168H625V0H96Z" />
<glyph unicode="J" glyph-name="J" horiz-adv-x="681" d="M-20 -389L-94 -223L-23 -182Q37 -148 82 -107T156 -17T203 77T230 180T242 283T246 389L254 1266H96V1434H625V1266H483L475 403Q473 188 433 53T303 -175T47 -354L-20 -389Z" />
<glyph unicode="K" glyph-name="K" horiz-adv-x="1441" d="M80 0V168H221L229 1266H80V1434H606V1266H461L457 764L1024 1266H866V1434H1403V1266H1288L698 750L1305 168H1423V0H850V168H999L457 688L453 168H606V0H80Z" />
<glyph unicode="L" glyph-name="L" horiz-adv-x="1214" d="M80 0V168H225L233 1266H80V1434H608V1266H463L455 168H881L901 410H1094L1073 0H80Z" />
<glyph unicode="M" glyph-name="M" horiz-adv-x="1933" d="M70 0V168H215L223 1266H61V1434H532L946 367Q954 347 979 250H983Q1008 347 1016 367L1425 1434H1872V1266H1708L1716 168H1872V0H1350V168H1491L1499 1137L1493 1141Q1488 1122 1478 1081T1458 1009T1438
950L1071 0H842L483 913Q470 945 460 979T438 1065T420 1133H416L408 168H569V0H70Z" />
<glyph unicode="N" glyph-name="N" horiz-adv-x="1630" d="M88 0V168H227L236 1266H55V1434H432L1096 567Q1158 484 1239 352H1243L1235 1266H1075V1434H1575V1266H1436L1427 0H1241L524 930Q453 1022 424 1081L420 1077L428 168H586V0H88Z" />
<glyph unicode="O" glyph-name="O" horiz-adv-x="1554" d="M84 692Q84 916 172 1089T425 1360T807 1458Q1117 1458 1293 1266T1470 741Q1470 625 1444 516T1361 308T1223 136T1024 19T766 -25Q452 -25 268 168T84 692ZM338 702Q338 595 364 501T442 332T579 212T774
168Q852 168 917 189T1028 245T1107 328T1162 426T1195 533T1212 636T1217 729Q1217 811 1206 883T1165 1028T1089 1151T966 1234T793 1266Q700 1266 620 1234T476 1135T375 958T338 702Z" />
<glyph unicode="P" glyph-name="P" horiz-adv-x="1214" d="M80 0V168H225L233 1266H80V1434H621Q760 1434 832 1420T963 1370Q1048 1319 1097 1226T1147 1018Q1147 899 1092 795T946 637Q880 599 819 584T668 569H457L453 168H629V0H80ZM457 737H618Q766 737 835
810T905 1010Q905 1131 825 1204Q783 1240 729 1253T588 1266H461L457 737Z" />
<glyph unicode="Q" glyph-name="Q" horiz-adv-x="1554" d="M84 692Q84 916 172 1089T425 1360T807 1458Q1117 1458 1293 1266T1470 741Q1470 620 1441 507T1354 294T1204 119T991 6V2Q1044 -3 1083 -15T1182 -57L1372 -154Q1480 -209 1597 -209Q1661 -209 1696
-197V-377Q1610 -389 1563 -389Q1472 -389 1395 -369T1190 -283L903 -137Q885 -128 830 -98T738 -50T672 -25Q399 7 242 198T84 692ZM338 702Q338 595 364 501T442 332T579 212T774 168Q852 168 917 189T1028 245T1107 328T1162 426T1195 533T1212 636T1217 729Q1217
811 1206 883T1165 1028T1089 1151T966 1234T793 1266Q700 1266 620 1234T476 1135T375 958T338 702Z" />
<glyph unicode="R" glyph-name="R" horiz-adv-x="1327" d="M80 0V168H221L229 1266H80V1434H717Q825 1434 909 1405T1045 1323T1124 1203T1151 1055Q1151 965 1124 894T1048 779T940 709T809 676V672Q864 668 906 628T991 516L1147 254Q1176 206 1206 187T1274
168H1327V0H1194Q1095 0 1044 26T934 152L737 485Q693 561 662 585T580 610H457L453 168H618V0H80ZM457 791H635Q759 791 834 854T909 1030T842 1204T651 1266H461L457 791Z" />
<glyph unicode="S" glyph-name="S" horiz-adv-x="1251" d="M109 397H338V207Q375 187 446 172T598 156Q737 156 819 217T901 391Q901 474 850 517T678 594L424 666Q357 685 305 712T208 783T138 890T113 1038Q113 1175 186 1271T379 1413T653 1458Q739 1458 828
1446T964 1422T1087 1389V1071H870V1243Q782 1278 655 1278Q504 1278 429 1220T354 1071Q354 984 409 941T575 870L797 813Q852 799 896 781T989 732T1069 660T1122 561T1143 428Q1143 215 996 95T592 -25Q498 -25 346 -4T109 51V397Z" />
<glyph unicode="T" glyph-name="T" horiz-adv-x="1402" d="M434 0V168H582L590 1266H256L248 1057H43L51 1434H1352L1360 1057H1155L1147 1266H819L811 168H977V0H434Z" />
<glyph unicode="U" glyph-name="U" horiz-adv-x="1554" d="M61 1266V1434H586V1266H440L438 547Q438 477 441 433T463 335T518 248Q566 203 623 186T774 168Q882 168 942 185T1051 250Q1097 296 1114 362T1133 541L1137 1266H969V1434H1493V1266H1356L1352 496Q1352
229 1192 92Q1125 35 1014 5T772 -25Q615 -25 514 4T342 94Q267 157 238 251T209 494Q209 770 213 1266H61Z" />
<glyph unicode="V" glyph-name="V" horiz-adv-x="1517" d="M10 1266V1434H547V1266H401L743 317Q750 300 755 280T767 232T776 193H780Q782 200 793 247T813 317L1149 1266H983V1434H1507V1266H1378L887 0H633L135 1266H10Z" />
<glyph unicode="W" glyph-name="W" horiz-adv-x="2275" d="M16 1266V1434H553V1266H410L719 342Q728 316 740 266T760 193H764Q766 202 780 258T805 342L1059 1034L981 1266H842V1434H1366V1266H1223L1503 360Q1511 335 1542 193H1546Q1554 218 1568 274T1593
360L1905 1266H1747V1434H2259V1266H2134L1657 0H1403L1157 760H1153L866 0H612L143 1266H16Z" />
<glyph unicode="X" glyph-name="X" horiz-adv-x="1441" d="M848 0V168H995Q975 188 954 217L700 573L430 217Q412 193 387 168H532V0H33V168H152L592 719L190 1266H55V1434H616V1266H463Q477 1251 502 1221L748 885L1012 1217Q1028 1237 1057 1266H901V1434H1376V1266H1268L856
739L1280 168H1409V0H848Z" />
<glyph unicode="Y" glyph-name="Y" horiz-adv-x="1478" d="M479 0V168H623L631 592L133 1266H8V1434H532V1266H393Q418 1241 434 1217L764 768L1090 1217Q1102 1235 1133 1266H971V1434H1470V1266H1343L860 592L852 168H1004V0H479Z" />
<glyph unicode="Z" glyph-name="Z" horiz-adv-x="1327" d="M90 0V160L901 1217Q918 1239 946 1266H356L340 1059H135L152 1434H1225V1262L424 217Q406 193 381 168H1016L1032 375H1237L1221 0H90Z" />
<glyph unicode="[" glyph-name="bracketleft" horiz-adv-x="606" d="M573 -346V-514H164L172 1575H582V1407H389L381 -346H573Z" />
<glyph unicode="\" glyph-name="backslash" horiz-adv-x="757" d="M610 -166L-4 1542L147 1599L762 -109L610 -166Z" />
<glyph unicode="]" glyph-name="bracketright" horiz-adv-x="606" d="M33 1407V1575H442L434 -514H25V-346H217L225 1407H33Z" />
<glyph unicode="^" glyph-name="asciicircum" horiz-adv-x="1228" d="M885 686L614 1229L344 686H176L549 1434H680L1053 686H885Z" />
<glyph unicode="_" glyph-name="underscore" horiz-adv-x="1024" d="M0 -256V-154H1024V-256H0Z" />
<glyph unicode="`" glyph-name="grave" horiz-adv-x="569" d="M346 1188L-61 1516L61 1630L475 1286L346 1188Z" />
<glyph unicode="a" glyph-name="a" horiz-adv-x="1214" d="M164 729V993Q197 1009 209 1014T270 1038T357 1064T458 1081T586 1090Q702 1090 783 1063T912 980T980 853T1001 682T998 405T993 168H1137V0H799Q799 114 817 221H813Q794 170 769 131T704 54T601 -4T459
-25Q368 -25 299 3T193 77T137 175T119 281Q119 339 135 386T178 466T245 524T323 563T411 587T497 600T578 606L797 618V698Q797 806 746 864T561 922Q459 922 369 885V729H164ZM348 299Q348 237 393 197T518 156Q645 156 719 236T793 426V469Q722 468 676 467T573
460T481 443T412 413T364 366T348 299Z" />
<glyph unicode="b" glyph-name="b" horiz-adv-x="1251" d="M942 590Q942 733 876 815T682 897Q552 897 481 812T406 592L397 213Q494 168 608 168Q696 168 762 202T866 297T923 430T942 590ZM8 1407V1575H410L401 1069Q399 997 383 844H387Q403 887 431 927T502
1005T611 1067T752 1090Q956 1090 1070 958T1184 606Q1184 506 1166 418T1104 248T992 106T820 11T582 -25Q456 -25 364 -4T172 57L180 1407H8Z" />
<glyph unicode="c" glyph-name="c" horiz-adv-x="1024" d="M758 733V891Q699 909 623 909Q470 909 387 809T303 549Q303 476 322 412T382 291T499 201T676 168Q749 168 827 186T948 229L936 31Q891 11 812 -7T645 -25Q522 -25 423 7T260 92T153 217T92 366T74
526Q74 778 224 934T647 1090Q830 1090 950 1034V733H758Z" />
<glyph unicode="d" glyph-name="d" horiz-adv-x="1290" d="M1217 168V0H856Q856 101 877 217H872Q829 105 740 40T518 -25Q322 -25 198 111T74 481Q74 658 140 795T337 1011T645 1090Q744 1090 856 1065L860 1407H666V1575H1081L1073 168H1217ZM848 567V864Q775
909 645 909Q543 909 467 854T353 711T315 516Q315 361 381 265T573 168Q709 168 778 272T848 567Z" />
<glyph unicode="e" glyph-name="e" horiz-adv-x="1138" d="M1022 238L1010 49Q833 -25 635 -25Q373 -24 224 126T74 528Q74 689 131 814T309 1014T596 1090Q752 1090 861 1017T1024 819T1077 526V496H315Q316 342 418 249T680 156Q865 156 1022 238ZM315 651H836V672Q836
701 829 732T803 797T757 859T684 904T584 922Q514 922 462 899T379 835T334 749T315 651Z" />
<glyph unicode="f" glyph-name="f" horiz-adv-x="720" d="M90 0V168H219L223 897H61V1065H223L227 1210Q230 1312 265 1388T361 1509T501 1577T676 1599Q754 1599 883 1575L874 1395Q818 1419 702 1419Q578 1419 519 1355T457 1186L453 1065H702V897H453L449 168H612V0H90Z"
/>
<glyph unicode="g" glyph-name="g" horiz-adv-x="1175" d="M1149 1065L1141 897L936 909Q960 882 975 859T1007 787T1024 678Q1024 568 964 480T805 346T592 299H506Q463 299 426 274T389 219Q389 185 425 172T569 143L848 104Q909 96 955 81T1043 37T1106 -39T1128
-152Q1128 -236 1096 -302T1011 -412T885 -485T733 -526T567 -539Q348 -539 208 -462T68 -256Q68 -153 139 -86T315 -4V0Q248 14 204 52T160 158Q160 209 193 248T268 305T362 332V336Q312 350 269 373T184 436T117 539T92 684Q92 862 218 976T567 1090Q648 1090
756 1065H1149ZM309 690Q309 578 379 523T580 467Q699 467 765 529T831 698T762 863T567 922Q449 922 379 858T309 690ZM721 -72L455 -31Q371 -67 328 -109T285 -209Q285 -371 590 -371Q651 -371 705 -362T807 -333T883 -277T911 -193Q911 -138 867 -112T721 -72Z"
/>
<glyph unicode="h" glyph-name="h" horiz-adv-x="1366" d="M98 0V168H219L227 1407H74V1575H465L459 1065Q459 1004 432 829H436Q471 943 566 1016T811 1090Q995 1090 1088 982T1182 678Q1182 581 1179 403T1174 168H1313V0H823V168H944Q945 220 948 384T952 637Q952
754 898 825T737 897Q617 897 539 809T457 573L449 168H592V0H98Z" />
<glyph unicode="i" glyph-name="i" horiz-adv-x="645" d="M80 0V168H219L223 897H61V1065H453L449 168H592V0H80ZM180 1376T180 1442T226 1553T338 1599T450 1554T496 1442T450 1330T338 1284T226 1330Z" />
<glyph unicode="j" glyph-name="j" horiz-adv-x="681" d="M61 897V1065H453L449 199Q447 -126 304 -314T-121 -539L-150 -356Q-4 -322 73 -255T184 -61T219 289L223 897H61ZM180 1376T180 1442T226 1553T338 1599T450 1554T496 1442T450 1330T338 1284T226 1330Z" />
<glyph unicode="k" glyph-name="k" horiz-adv-x="1251" d="M90 0V168H219L227 1407H41V1575H457L449 602L825 893V897H674V1065H1174V897H1067L686 582L1098 168H1219V0H707V168H831L449 541V168H578V0H90Z" />
<glyph unicode="l" glyph-name="l" horiz-adv-x="645" d="M90 0V168H219L227 1407H41V1575H457L449 168H592V0H90Z" />
<glyph unicode="m" glyph-name="m" horiz-adv-x="2048" d="M98 0V168H219L223 897H74V1065H453Q453 966 432 829H436Q468 948 568 1019T801 1090Q950 1090 1031 1023T1128 848H1133Q1169 964 1265 1027T1497 1090Q1678 1090 1771 982T1864 678Q1864 387 1855 168H1995V0H1505V168H1626Q1634
376 1634 637Q1634 754 1580 825T1419 897Q1303 897 1233 810T1159 573L1155 168H1290V0H809V168H926L930 596Q934 897 717 897Q610 897 532 807T453 573L449 168H592V0H98Z" />
<glyph unicode="n" glyph-name="n" horiz-adv-x="1366" d="M98 0V168H219L223 897H74V1065H453Q453 966 432 829H436Q471 943 566 1016T811 1090Q995 1090 1088 982T1182 678Q1182 581 1179 403T1174 168H1313V0H823V168H944Q945 220 948 384T952 637Q952 754
898 825T737 897Q617 897 539 809T457 573L449 168H592V0H98Z" />
<glyph unicode="o" glyph-name="o" horiz-adv-x="1214" d="M309 518Q309 424 338 348T436 220T604 168Q705 168 774 221T874 358T905 551Q905 723 827 810T621 897Q555 897 502 876T413 818T354 733T320 631T309 518ZM68 510Q68 769 223 929T625 1090Q739 1090
830 1056T979 967T1076 838T1131 686T1147 526Q1147 411 1112 312T1010 137T837 18T598 -25Q487 -25 397 5T247 85T145 205T86 350T68 510Z" />
<glyph unicode="p" glyph-name="p" horiz-adv-x="1290" d="M53 897V1065H420Q420 964 399 848H403Q447 960 536 1025T758 1090Q955 1090 1079 954T1204 584Q1204 313 1051 144T631 -25Q512 -25 420 10L416 -346H586V-514H76V-346H195L203 897H53ZM428 498V201Q501
156 633 156Q735 156 811 211T925 354T963 549Q963 704 897 800T705 897Q568 897 498 792T428 498Z" />
<glyph unicode="q" glyph-name="q" horiz-adv-x="1290" d="M852 473L860 852Q763 897 649 897Q562 897 496 863T392 768T334 635T315 475Q315 332 381 250T575 168Q704 168 776 253T852 473ZM719 -514V-346H850L854 -4Q854 41 863 122T874 221H870Q854 178 826
138T755 60T647 -2T506 -25Q301 -25 188 107T74 459Q74 559 92 647T154 817T265 959T437 1054T676 1090Q801 1090 893 1069T1087 1008L1079 -346H1231V-514H719Z" />
<glyph unicode="r" glyph-name="r" horiz-adv-x="872" d="M90 0V168H219L223 897H61V1065H440Q440 877 428 770L432 766Q463 916 545 1000T743 1085Q827 1085 872 1067L848 864Q799 881 743 881Q670 881 613 849T523 761T472 639T453 500L449 168H604V0H90Z" />
<glyph unicode="s" glyph-name="s" horiz-adv-x="1062" d="M918 760H713L709 887Q645 922 535 922Q319 922 319 793Q319 738 355 713T455 674L715 623Q769 612 808 597T888 550T951 463T973 330Q973 249 946 186T873 83T765 19T637 -15T496 -25Q281 -25 109 39L104
328H309L313 186L348 175Q382 164 401 160T460 149T541 143Q631 143 693 180T756 293Q756 355 716 384T602 428L432 459Q377 469 333 481T242 517T163 571T111 648T90 754Q90 844 127 911T229 1016T373 1072T543 1090Q579 1090 614 1088T682 1080T741 1069T797
1056T841 1043T882 1030T913 1020L918 760Z" />
<glyph unicode="t" glyph-name="t" horiz-adv-x="757" d="M61 897V1065H223L227 1305L459 1321L451 1065H756V897H451Q446 472 446 399Q446 258 479 207T596 156Q674 156 774 197L766 29Q660 -25 530 -25Q360 -25 289 49T217 303Q217 345 223 897H61Z" />
<glyph unicode="u" glyph-name="u" horiz-adv-x="1366" d="M74 897V1065H444Q436 643 436 428Q436 312 490 240T645 168Q762 168 840 257T920 492L924 897H784V1065H1153L1149 168H1292V0H924Q924 106 944 236H940Q908 120 802 48T567 -25Q398 -25 303 84T207
383Q207 670 215 897H74Z" />
<glyph unicode="v" glyph-name="v" horiz-adv-x="1175" d="M467 0L100 897H-6V1065H469V897H354L565 322Q574 297 586 250T600 193H604Q607 206 612 234T623 283T635 322L842 897H707V1065H1182V897H1071L709 0H467Z" />
<glyph unicode="w" glyph-name="w" horiz-adv-x="1820" d="M1102 0L952 418Q945 435 920 532H915Q890 435 883 418L709 0H479L123 897H10V1065H485V897H365L561 356Q573 325 606 205H610Q654 339 662 356L829 756L778 897H659V1065H1135V897H1008L1202 348Q1210
328 1241 205H1245Q1275 323 1284 348L1485 897H1335V1065H1810V897H1702L1343 0H1102Z" />
<glyph unicode="x" glyph-name="x" horiz-adv-x="1290" d="M717 0V168H850Q820 194 811 205L621 426L418 205Q401 184 377 172V168H524V0H61V168H178L516 537L203 897H80V1065H592V897H463Q471 890 484 877T502 860L672 662L848 860Q868 883 889 893V897H750V1065H1200V897H1087L770
561L1110 168H1229V0H717Z" />
<glyph unicode="y" glyph-name="y" horiz-adv-x="1214" d="M-6 897V1065H481V897H362L567 350Q576 326 584 299T601 238T614 190H618Q635 262 666 350L854 897H715V1065H1165V897H1059L735 6Q626 -293 567 -369Q436 -539 201 -539Q118 -539 55 -516V-336Q107 -358
205 -358Q247 -358 281 -347T354 -308T427 -222T494 -80L502 -57L109 897H-6Z" />
<glyph unicode="z" glyph-name="z" horiz-adv-x="1099" d="M82 0V168L672 842Q686 858 731 897H317L301 739H109L125 1065H1010V893L432 240Q424 231 415 221T398 204T378 186T358 168H809L825 332H1018L1001 0H82Z" />
<glyph unicode="{" glyph-name="braceleft" horiz-adv-x="606" d="M623 1575V1419H567Q503 1419 477 1380T451 1264V846Q451 724 389 642T233 532V528Q327 501 389 420T451 215V-203Q451 -280 477 -319T567 -358H623V-514H494Q387 -514 310 -433T233 -209V215Q233
310 176 380T41 453V608Q119 611 176 681T233 846V1270Q233 1412 310 1493T494 1575H623Z" />
<glyph unicode="|" glyph-name="bar" horiz-adv-x="454" d="M143 -512V1536H311V-512H143Z" />
<glyph unicode="}" glyph-name="braceright" horiz-adv-x="606" d="M-16 -514V-358H39Q103 -358 129 -319T156 -203V215Q156 338 217 419T373 528V532Q279 560 218 641T156 846V1264Q156 1341 130 1380T39 1419H-16V1575H113Q219 1575 296 1493T373 1270V846Q373
751 430 681T565 608V453Q487 450 430 380T373 215V-209Q373 -351 297 -432T113 -514H-16Z" />
<glyph unicode="~" glyph-name="asciitilde" horiz-adv-x="1228" d="M1014 684L1087 537Q995 362 831 362Q754 362 598 434Q550 458 523 470T459 494T395 506Q366 506 341 494T290 454T253 409T215 352L141 500Q232 674 397 674Q483 674 631 602Q641 597 667 585T705
567T738 553T773 541T803 534T834 530Q854 530 872 535T907 554T936 579T965 613T989 647T1014 684Z" />
</font>
</defs>
</svg>
